PathFileType	4	(X/Y/Z)	Patient4_TMGait_0pt8_01_right_12.trc.trc
DataRate	CameraRate	NumFrames	NumMarkers	Units	OrigDataRate	OrigDataStartFrame	OrigNumFrames
89.171974522293	89.171974522293	4	33	mm	89.171974522293	36	       141
Frame#	Time	Sacral			L.Shoulder			Chest			R.Shoulder			Neck			R.ASIS			L.ASIS			R.Thigh.Superior			R.Thigh.Lateral			R.Thigh.Inferior			R.Patella			L.Thigh.Superior			L.Thigh.Lateral			L.Thigh.Inferior			L.Patella			L.Shank.Superior			L.Shank.Lateral			L.Shank.Inferior			R.Shank.Superior			R.Shank.Lateral			R.Shank.Inferior			R.Heel			R.Midfoot.Superior			R.Midfoot.Lateral			R.Toe			L.Heel			L.Midfoot.Lateral			L.Midfoot.Superior			L.Toe			L.Elbow			L.Wrist			R.Elbow			R.Wrist			
		X1	Y1	Z1	X2	Y2	Z2	X3	Y3	Z3	X4	Y4	Z4	X5	Y5	Z5	X6	Y6	Z6	X7	Y7	Z7	X8	Y8	Z8	X9	Y9	Z9	X10	Y10	Z10	X11	Y11	Z11	X12	Y12	Z12	X13	Y13	Z13	X14	Y14	Z14	X15	Y15	Z15	X16	Y16	Z16	X17	Y17	Z17	X18	Y18	Z18	X19	Y19	Z19	X20	Y20	Z20	X21	Y21	Z21	X22	Y22	Z22	X23	Y23	Z23	X24	Y24	Z24	X25	Y25	Z25	X26	Y26	Z26	X27	Y27	Z27	X28	Y28	Z28	X29	Y29	Z29	X30	Y30	Z30	X31	Y31	Z31	X32	Y32	Z32	X33	Y33	Z33	

36	13.612500000000	881.286451133698	971.278398906338	499.200588219591	1036.129335426690	1419.183947237568	332.460484981693	1138.427031917546	1350.822414620176	494.679801628429	1043.447759318007	1412.525736235093	668.515508018290	1022.132281443955	1473.493673863821	489.589966513273	1115.301952816754	927.808905622986	619.671098118259	1098.688200780405	941.575381830526	342.455658994842	1197.343516211797	751.129489672805	588.672789811284	1144.664858496648	628.983212719391	651.934886125067	1232.486688974217	593.505016748772	572.757759165142	1253.666042979754	502.943468169233	581.536815255438	1138.637445914991	718.286300309408	366.313270084066	1048.651339416325	603.934046917363	300.351338805225	1135.001689181703	517.371159959171	356.434301330293	1122.658497765062	430.237531435641	352.193024347149	1046.292123975180	376.385631930061	347.053863634472	900.011443760484	351.230625238247	301.984548525666	872.198208857462	225.922043208351	358.384078674751	1229.489929774580	409.240731139137	589.422002863624	1163.795792756418	302.642972302611	653.892811927300	1211.104643340857	209.352364598769	592.396720677010	1082.198823567814	42.676872364736	564.135166881898	1252.491693526547	98.556792973249	598.728480815646	1165.800252618261	37.122412987451	639.211095100085	1372.939890147099	50.998372538538	626.588227500716	675.389193867432	178.997057537164	401.235280847893	727.969790375163	133.027491297234	318.453092598813	832.865883194356	133.304856542021	338.070517529437	902.503728429717	31.523900359692	304.927706616666	1097.139737088051	1092.355261815317	175.792053799837	1351.456752679605	1078.429432528532	206.566755610292	925.249067924089	1084.788040787667	767.886401733828	888.907893720191	827.831303170225	775.847674325028	
37	13.623714285714	880.423518805188	972.956133002115	502.330131266020	1034.655919067947	1420.727732284245	334.715738286177	1138.491745390018	1351.923345426362	495.806985214550	1045.428976195272	1413.558060690070	670.682957769405	1022.517069129025	1474.857245221982	492.026285057077	1114.992249832413	929.561444480632	621.493595327574	1097.328062431718	942.373957759542	344.174108278386	1195.287724548505	750.618643589766	592.205811783661	1140.563183816313	629.033233332594	653.967142143659	1228.339111001509	592.861612399102	574.968351365531	1248.426637954854	502.141106128970	583.266339258260	1143.163353015571	722.118877031384	368.101999012100	1057.366320635107	605.242629900245	301.635416916156	1147.306807642743	521.120731322833	356.785533252694	1136.633425218102	432.907642756358	352.087219733153	1058.941934297041	379.093538530729	347.412383581540	911.234736975868	358.606996137525	304.109378897970	880.668224921245	233.582800828138	359.969900925120	1223.349247228574	408.640063650418	590.933810879435	1156.578193266255	302.412556547397	654.911526551588	1203.143367248867	208.978707639451	593.169255742345	1073.315646152470	42.557047474358	564.398725786824	1243.500682590910	98.824962798319	599.179123878387	1156.857595126221	37.142729902815	639.466212917786	1363.929574377865	51.338868125876	626.890315917823	682.927449025154	194.611320050329	405.130215961126	732.314025904317	146.477791743239	321.333647386580	837.892001083504	140.937924883490	339.706500301334	901.179107775978	32.723913764331	304.697807442457	1087.074418683283	1090.456502136398	180.769320529466	1341.308547808141	1069.277764231446	209.418289613548	933.790000390206	1082.782852239562	770.792026919733	904.604696872415	824.810895041329	777.710961786296	
38	13.634928571429	879.421420490792	974.788384787351	505.357121728269	1032.969254806186	1422.313598342126	336.794228919238	1138.401866939390	1353.096481953929	496.719248764091	1047.328359276222	1414.666479296088	672.638480832173	1022.758779637573	1476.296966319967	494.269137605598	1114.485282422399	931.306528635950	623.158659386045	1095.739948707524	943.338155586214	345.845261730066	1192.811161095692	750.069712154517	595.525935479150	1136.096585470596	629.105120554390	655.894270987898	1223.732661692000	592.186727562644	577.036475456310	1242.664594841612	501.324329859522	584.950659741141	1147.294372411253	726.473330201974	369.639078359922	1065.479229558939	607.307887571516	302.737837710008	1158.936938934372	525.742897264077	356.837662189042	1150.166465726514	436.569097554046	351.781223685474	1071.524246797133	382.581826888713	347.645875193648	922.657633816391	365.847722832971	306.205317911348	890.089709960248	241.037469147151	361.640257769277	1216.751070931389	408.055853929689	592.390781722560	1149.034482660658	302.146287507753	655.893592444163	1194.954808294784	208.630437674196	593.908062977206	1064.379828307944	42.446471132321	564.630094882422	1234.485004709166	99.091885655360	599.661195110429	1147.869247353295	37.124072796846	639.683331596663	1354.896265652682	51.551981115975	627.152808524221	692.012795748257	208.216285501056	409.265791187890	738.554166858601	158.679481126233	324.409446099406	844.563889805130	148.545834242824	341.476763821314	902.597796749669	34.852629176816	304.432363923443	1076.758911879837	1088.820757928966	185.746499868763	1330.568671481775	1058.937729706873	212.250448202629	942.496739249739	1080.967635608389	773.586807783062	921.386365346574	822.058097198291	779.582385958622	
39	13.646142857143	878.332538090422	976.719710755488	508.291602639691	1031.110565785660	1423.919489482351	338.697091964252	1138.164073505175	1354.327858652232	497.440129395641	1049.128791632123	1415.855224045223	674.384585389502	1022.866167307632	1477.804891394863	496.314007833744	1113.826351704743	933.027698083620	624.686063103564	1093.926401360809	944.479240181602	347.488865186914	1189.976950463977	749.552273100127	598.499181346420	1131.396988383730	629.241702990064	657.704006954398	1218.761597645903	591.510316734478	578.923988153714	1236.482493785361	500.520016134868	586.566808086690	1150.993103340720	731.304969124845	370.944101775380	1072.950988689521	610.084594159941	303.669143828186	1169.811953883519	531.170568724805	356.618942560983	1163.157193625688	441.160764300681	351.265362050299	1083.946503961044	386.762594863561	347.744207409384	934.166008473728	372.716679681866	308.190110799450	900.430927409319	248.004958435574	363.315996206671	1209.792144982823	407.508001116278	593.772637146761	1141.253913998817	301.878665771614	656.842883095794	1186.595817942790	208.316599383120	594.605678225090	1055.391689245388	42.360504656477	564.836980530639	1225.464425571054	99.341504594309	600.174322069697	1138.839226482076	37.078199349530	639.872459079971	1345.847643326630	51.634658120642	627.375085562125	702.486622920185	219.312553811757	413.439475958954	746.683410888992	169.089937812420	327.541846879576	852.948652445389	155.752241273942	343.291583108236	907.077590969984	37.814007821085	304.204540332824	1066.296653058032	1087.457010125362	190.694751655835	1319.186912811932	1047.449407729610	215.051765225877	951.369026126322	1079.348442375322	776.219414174161	939.172807383024	819.674287792266	781.428114948594	
